<svg width="65" height="65" viewBox="0 0 65 65" fill="none" xmlns="http://www.w3.org/2000/svg">
<g clip-path="url(#clip0_209_19)">
<path d="M57.8622 20.9683C57.7311 20.8295 57.5961 20.6944 57.4572 20.5633C57.3192 20.4333 57.1892 20.2873 57.0522 20.1583C56.9142 20.0283 56.7842 19.8823 56.6472 19.7533C56.5092 19.6233 56.3792 19.4773 56.2422 19.3483C56.1042 19.2183 55.9742 19.0723 55.8372 18.9433C55.6992 18.8133 55.5692 18.6673 55.4312 18.5383C55.2942 18.4083 55.1642 18.2623 55.0262 18.1323C59.0442 22.0817 61.3461 27.454 61.4342 33.0873C61.4342 46.5113 47.8082 57.4323 31.0542 57.4323C21.6742 57.4323 13.2812 54.0053 7.69922 48.6343L8.10422 49.0393L8.50922 49.4443L8.91422 49.8493L9.31922 50.2543L9.72422 50.6593L10.1292 51.0643L10.5342 51.4693C16.1082 57.0673 24.6872 60.6723 34.2952 60.6723C51.0492 60.6723 64.6752 49.7523 64.6752 36.3683C64.6752 30.6483 62.2122 25.2293 57.8622 20.9683Z" fill="black"/>
<path d="M59.4098 33.0876C59.4098 45.4095 46.715 55.3983 31.0552 55.3983C15.3954 55.3983 2.70068 45.4095 2.70068 33.0876C2.70068 25.4482 7.56146 18.6999 15.0309 14.6979C22.5003 10.6959 27.1504 6.59668 31.0552 6.59668C34.9601 6.59668 38.2978 9.94248 47.0796 14.6979C54.549 18.6999 59.4098 25.4482 59.4098 33.0876Z" fill="#FBF0DF"/>
<path d="M59.4098 33.0878C59.4056 31.5049 59.1876 29.9298 58.7617 28.4053C56.5501 55.3823 23.6426 56.6785 10.7048 48.6097C16.5208 53.1175 23.6978 55.5117 31.0553 55.3985C46.6908 55.3985 59.4098 45.3935 59.4098 33.0878Z" fill="#F6DECE"/>
<path d="M20.1428 13.2154C23.7641 11.0442 28.5762 6.96933 33.3074 6.96123C32.5795 6.7261 31.8201 6.60317 31.0552 6.59668C29.0947 6.59668 27.0046 7.60933 24.3717 9.13236C23.4562 9.66703 22.5084 10.2584 21.5038 10.8741C19.6162 12.0407 17.4532 13.3612 15.0228 14.6817C7.31032 18.8538 2.70068 25.7317 2.70068 33.0876V34.0516C7.61007 16.707 16.5296 15.3865 20.1428 13.2154Z" fill="#FFFEFC"/>
<path fill-rule="evenodd" clip-rule="evenodd" d="M28.7221 8.6462C28.7335 10.5591 28.3319 12.4519 27.5447 14.1953C26.7576 15.9388 25.6034 17.4918 24.1611 18.7484C23.9343 18.9509 24.1125 19.3398 24.4042 19.2264C27.1343 18.1651 30.8204 14.9894 29.2649 8.58139C29.2001 8.21684 28.7221 8.31405 28.7221 8.6462ZM30.5611 8.6462C31.5524 10.2635 32.1822 12.0761 32.4073 13.9596C32.6324 15.8432 32.4476 17.7531 31.8654 19.5585C31.7682 19.8421 32.1166 20.0851 32.311 19.8502C34.0852 17.5818 35.6326 13.0776 30.9986 8.21684C30.7637 8.00621 30.3991 8.33026 30.5611 8.6138V8.6462ZM32.7971 8.50848C34.3494 9.60745 35.648 11.0265 36.6053 12.67C37.5626 14.3134 38.1564 16.1431 38.3465 18.0355C38.3383 18.1037 38.3566 18.1724 38.3978 18.2274C38.4389 18.2825 38.4996 18.3196 38.5673 18.331C38.635 18.3425 38.7046 18.3274 38.7615 18.289C38.8184 18.2506 38.8584 18.1917 38.8731 18.1246C39.6184 15.2973 39.1971 10.4771 33.0644 7.9738C32.7404 7.84418 32.5298 8.28165 32.7971 8.47608V8.50848ZM17.8421 16.9337C19.6886 16.3821 21.3982 15.4477 22.8596 14.1915C24.3211 12.9353 25.5015 11.3854 26.3242 9.64265C26.47 9.35101 26.9318 9.46442 26.8588 9.78847C25.4573 16.2694 20.7667 17.6223 17.8502 17.4441C17.5424 17.4522 17.5505 17.0228 17.8421 16.9337Z" fill="#CCBEA7"/>
<path d="M31.0553 57.4313C14.3013 57.4313 0.675293 46.5113 0.675293 33.0883C0.675293 24.9883 5.68229 17.4283 14.0663 12.9003C16.4963 11.6043 18.5793 10.3003 20.4343 9.15729C21.4543 8.52529 22.4193 7.93429 23.3503 7.38329C26.1953 5.69729 28.6253 4.57129 31.0553 4.57129C33.4853 4.57129 35.6083 5.54329 38.2653 7.11529C39.0753 7.57729 39.8853 8.07929 40.7523 8.63029C42.7693 9.87729 45.0463 11.2873 48.0433 12.9003C56.4283 17.4283 61.4343 24.9783 61.4343 33.0873C61.4343 46.5113 47.8083 57.4323 31.0543 57.4323M31.0543 6.59729C29.0943 6.59729 27.0043 7.61029 24.3703 9.13329C23.4553 9.66829 22.5073 10.2593 21.5023 10.8753C19.6153 12.0413 17.4523 13.3623 15.0223 14.6823C7.30929 18.8533 2.69929 25.7313 2.69929 33.0873C2.69929 45.3933 15.4193 55.4073 31.0543 55.4073C46.6893 55.4073 59.4083 45.3933 59.4083 33.0873C59.4083 25.7313 54.7983 18.8533 47.0783 14.6973C44.0163 13.0773 41.6263 11.5543 39.6903 10.3553C38.8073 9.81229 37.9973 9.31029 37.2603 8.86529C34.8053 7.40629 33.0143 6.59729 31.0543 6.59729Z" fill="black"/>
<path d="M36.7668 39.0012C36.4029 40.4918 35.5744 41.828 34.4012 42.8169C33.5208 43.6712 32.3803 44.2072 31.1607 44.3399C29.9046 44.2278 28.7243 43.6905 27.8149 42.8169C26.6536 41.8234 25.8369 40.4876 25.4817 39.0012C25.4699 38.913 25.4785 38.8232 25.5068 38.7388C25.5351 38.6544 25.5823 38.5776 25.6449 38.5142C25.7074 38.4509 25.7836 38.4027 25.8677 38.3734C25.9517 38.3441 26.0414 38.3344 26.1298 38.345H36.1268C36.2145 38.3357 36.3033 38.3464 36.3863 38.3763C36.4693 38.4062 36.5445 38.4546 36.6061 38.5178C36.6677 38.581 36.7142 38.6573 36.742 38.741C36.7698 38.8248 36.7783 38.9137 36.7668 39.0012Z" fill="#B71422"/>
<path d="M27.8148 42.8818C28.722 43.7564 29.8982 44.2988 31.1525 44.421C32.4039 44.297 33.577 43.7548 34.4821 42.8818C34.7711 42.6111 35.0418 42.3216 35.2923 42.0149C34.7932 41.4488 34.1836 40.9907 33.5009 40.6689C32.8182 40.347 32.0769 40.1683 31.3226 40.1436C30.5155 40.1627 29.7251 40.3776 29.0195 40.77C28.3139 41.1623 27.7142 41.7202 27.272 42.3957C27.4583 42.5658 27.6203 42.7278 27.8148 42.8818Z" fill="#FF6164"/>
<path d="M27.9444 42.2413C28.346 41.7222 28.8601 41.301 29.448 41.0094C30.0358 40.7177 30.6822 40.5631 31.3384 40.5573C32.5515 40.5931 33.7072 41.0814 34.5784 41.9263C34.7651 41.7223 34.9434 41.5143 35.1134 41.3023C34.0831 40.3207 32.7213 39.7624 31.2984 39.7383C30.5378 39.7446 29.788 39.9194 29.103 40.2499C28.418 40.5805 27.8146 41.0588 27.3364 41.6503C27.5285 41.8582 27.7314 42.0558 27.9444 42.2423" fill="black"/>
<path d="M31.1282 44.8262C29.7781 44.7088 28.5075 44.1378 27.5232 43.2062C26.2684 42.1462 25.3854 40.7128 25.0032 39.1152C24.9756 38.9731 24.9801 38.8266 25.0164 38.6864C25.0527 38.5462 25.12 38.416 25.2132 38.3052C25.3241 38.1708 25.4643 38.0636 25.6231 37.9918C25.7819 37.92 25.9551 37.8856 26.1292 37.8912H36.1262C36.3001 37.8878 36.4725 37.9232 36.631 37.9948C36.7894 38.0664 36.9299 38.1725 37.0422 38.3052C37.1347 38.4163 37.2009 38.5469 37.2359 38.6871C37.2709 38.8274 37.2737 38.9737 37.2442 39.1152C36.8619 40.7124 35.9789 42.1455 34.7242 43.2052C33.7425 44.1354 32.4753 44.7066 31.1282 44.8262ZM26.1292 38.8312C25.9992 38.8312 25.9672 38.8882 25.9592 38.9042C26.3008 40.2897 27.0757 41.5299 28.1712 42.4442C28.9717 43.2327 30.0123 43.7317 31.1282 43.8622C32.2411 43.7324 33.2803 43.2397 34.0852 42.4602C35.1763 41.5436 35.9478 40.3039 36.2882 38.9202" fill="black"/>
<path d="M43.3853 39.5038C46.0027 39.5038 48.1245 38.2561 48.1245 36.717C48.1245 35.1779 46.0027 33.9302 43.3853 33.9302C40.7678 33.9302 38.646 35.1779 38.646 36.717C38.646 38.2561 40.7678 39.5038 43.3853 39.5038Z" fill="#FEBBD0"/>
<path d="M18.8628 39.5038C21.4802 39.5038 23.6021 38.2561 23.6021 36.717C23.6021 35.1779 21.4802 33.9302 18.8628 33.9302C16.2454 33.9302 14.1235 35.1779 14.1235 36.717C14.1235 38.2561 16.2454 39.5038 18.8628 39.5038Z" fill="#FEBBD0"/>
<path fill-rule="evenodd" clip-rule="evenodd" d="M21.0907 35.5989C21.9739 35.6005 22.8378 35.3401 23.5729 34.8506C24.308 34.3611 24.8814 33.6645 25.2205 32.849C25.5596 32.0335 25.6492 31.1357 25.4779 30.2693C25.3065 29.4029 24.882 28.6067 24.2581 27.9817C23.6341 27.3566 22.8388 26.9306 21.9727 26.7578C21.1065 26.5849 20.2086 26.6728 19.3925 27.0104C18.5763 27.348 17.8787 27.9201 17.3879 28.6544C16.897 29.3886 16.635 30.252 16.635 31.1351C16.635 32.3176 17.1042 33.4518 17.9396 34.2886C18.7749 35.1255 19.9083 35.5968 21.0907 35.5989ZM41.1576 35.5989C42.0419 35.6053 42.9081 35.349 43.6464 34.8624C44.3847 34.3759 44.9619 33.681 45.3047 32.8659C45.6475 32.0509 45.7406 31.1523 45.572 30.2843C45.4035 29.4163 44.9809 28.6179 44.3579 27.9904C43.735 27.3629 42.9397 26.9345 42.0729 26.7597C41.2061 26.5848 40.3069 26.6713 39.4894 27.0082C38.6718 27.345 37.9728 27.9171 37.4808 28.6519C36.9889 29.3866 36.7263 30.2509 36.7262 31.1351C36.7241 32.3141 37.1892 33.4458 38.0198 34.2824C38.8504 35.1191 39.9787 35.5925 41.1576 35.5989Z" fill="black"/>
<path fill-rule="evenodd" clip-rule="evenodd" d="M19.7135 31.4188C20.0456 31.4204 20.3706 31.3234 20.6474 31.1401C20.9243 30.9569 21.1405 30.6955 21.2686 30.3892C21.3968 30.083 21.4312 29.7455 21.3674 29.4197C21.3036 29.0939 21.1445 28.7943 20.9103 28.559C20.6761 28.3236 20.3773 28.1631 20.0518 28.0978C19.7263 28.0324 19.3887 28.0651 19.0818 28.1918C18.7749 28.3185 18.5125 28.5334 18.3279 28.8094C18.1432 29.0853 18.0447 29.4099 18.0447 29.7419C18.0447 30.1852 18.2202 30.6105 18.533 30.9248C18.8457 31.2391 19.2702 31.4167 19.7135 31.4188ZM39.7805 31.4188C40.1125 31.4204 40.4375 31.3234 40.7143 31.1401C40.9912 30.9569 41.2074 30.6955 41.3355 30.3892C41.4637 30.083 41.4981 29.7455 41.4343 29.4197C41.3705 29.0939 41.2114 28.7943 40.9772 28.559C40.743 28.3236 40.4442 28.1631 40.1187 28.0978C39.7932 28.0324 39.4556 28.0651 39.1487 28.1918C38.8418 28.3185 38.5794 28.5334 38.3948 28.8094C38.2102 29.0853 38.1116 29.4099 38.1116 29.7419C38.1116 30.1824 38.2849 30.6053 38.5941 30.9191C38.9034 31.2329 39.3237 31.4124 39.7643 31.4188H39.7805Z" fill="white"/>
</g>
<defs>
<clipPath id="clip0_209_19">
<rect width="64" height="64" fill="white" transform="translate(0.675293 0.571289)"/>
</clipPath>
</defs>
</svg>
