<svg width="801" height="801" viewBox="0 0 801 801" fill="none" xmlns="http://www.w3.org/2000/svg">
<g clip-path="url(#clip0_209_39)">
<path d="M374.183 0.572705C372.462 0.729084 366.988 1.27641 362.062 1.66736C248.435 11.9102 142.003 73.2111 74.5933 167.43C37.0567 219.817 13.0489 279.241 3.97751 342.184C0.771256 364.156 0.380249 370.645 0.380249 400.436C0.380249 430.226 0.771256 436.716 3.97751 458.687C25.7175 608.89 132.619 735.088 277.604 781.846C303.567 790.212 330.937 795.92 362.062 799.36C374.183 800.69 426.578 800.69 438.699 799.36C492.423 793.418 537.936 780.126 582.824 757.216C589.706 753.698 591.035 752.759 590.097 751.977C589.471 751.508 560.146 712.179 524.955 664.639L460.986 578.24L380.83 459.625C336.724 394.415 300.439 341.09 300.126 341.09C299.813 341.011 299.5 393.711 299.344 458.062C299.109 570.733 299.031 575.268 297.624 577.927C295.59 581.758 294.026 583.322 290.742 585.042C288.239 586.293 286.05 586.528 274.241 586.528H260.713L257.115 584.26C254.769 582.775 253.049 580.82 251.876 578.552L250.234 575.034L250.39 418.263L250.625 261.414L253.049 258.365C254.3 256.723 256.959 254.612 258.836 253.595C262.042 252.031 263.293 251.875 276.822 251.875C292.775 251.875 295.434 252.5 299.579 257.036C300.752 258.287 344.153 323.653 396.079 402.39C448.005 481.128 519.012 588.639 553.89 641.417L617.233 737.356L620.439 735.245C648.826 716.792 678.855 690.52 702.629 663.154C753.225 605.059 785.835 534.219 796.783 458.687C799.989 436.716 800.38 430.226 800.38 400.436C800.38 370.645 799.989 364.156 796.783 342.184C775.043 191.982 668.142 65.7831 523.156 19.0255C497.585 10.7374 470.37 5.02953 439.872 1.58917C432.365 0.807274 380.674 -0.0528143 374.183 0.572705ZM537.936 242.492C541.69 244.369 544.74 247.965 545.835 251.719C546.46 253.752 546.617 297.225 546.46 395.197L546.226 535.782L521.436 497.782L496.568 459.782V357.588C496.568 291.517 496.881 254.377 497.35 252.579C498.601 248.2 501.338 244.76 505.092 242.727C508.298 241.085 509.471 240.928 521.749 240.928C533.323 240.928 535.356 241.085 537.936 242.492Z" fill="black"/>
</g>
<defs>
<clipPath id="clip0_209_39">
<rect width="800" height="800" fill="white" transform="translate(0.380249 0.357422)"/>
</clipPath>
</defs>
</svg>
