<svg width="513" height="513" viewBox="0 0 513 513" fill="none" xmlns="http://www.w3.org/2000/svg">
<g clip-path="url(#clip0_207_4)">
<path d="M421.619 176.86C416.289 175.04 410.819 173.35 405.209 171.67C406.189 167.88 407.029 164.1 407.729 160.45C420.209 99.8498 412.079 51.0397 384.159 35.0497C357.509 19.6197 313.739 35.7497 269.699 74.0497C265.489 77.6997 261.139 81.6197 256.939 85.6897C254.129 83.0197 251.329 80.3597 248.519 77.8297C202.229 36.7297 155.939 19.4797 128.159 35.6097C101.509 51.0397 93.5086 96.9097 104.729 154.28C105.849 159.89 107.109 165.5 108.519 171.25C101.929 173.07 95.6086 175.04 89.5786 177.14C35.4486 196.08 0.798584 225.67 0.798584 256.39C0.798584 288.09 37.9686 319.93 94.3586 339.29C98.8486 340.83 103.479 342.24 108.249 343.64C106.709 349.81 105.299 355.98 104.179 361.88C93.5186 418.27 101.799 463.02 128.449 478.45C155.939 494.3 202.089 478.03 246.979 438.75C250.489 435.66 254.129 432.3 257.639 428.93C262.269 433.42 266.899 437.63 271.529 441.55C315.009 479 358.079 494.15 384.589 478.72C412.079 462.87 420.919 414.76 409.419 356.12C408.579 351.63 407.459 347.14 406.329 342.37C409.559 341.39 412.779 340.41 415.869 339.42C474.499 319.92 512.799 288.5 512.799 256.38C512.659 225.67 476.889 195.94 421.619 176.86ZM408.859 318.82C406.049 319.8 403.249 320.64 400.299 321.49C393.849 301.01 385.009 279.13 374.349 256.68C384.589 234.66 393.009 213.2 399.319 192.72C404.509 194.26 409.699 195.81 414.609 197.49C462.019 213.76 490.919 237.89 490.919 256.55C490.779 276.31 459.639 301.98 408.859 318.82ZM387.819 360.48C393.009 386.43 393.709 409.72 390.339 428.09C387.249 444.5 381.219 455.44 373.509 459.93C357.379 469.33 322.869 457.12 285.699 425.14C281.489 421.49 277.139 417.57 272.789 413.36C287.239 397.65 301.689 379.27 315.709 358.93C340.399 356.69 363.819 353.18 385.009 348.27C386.129 352.34 387.109 356.41 387.819 360.48ZM175.159 458.25C159.449 463.86 146.819 464 139.249 459.65C123.119 450.39 116.389 414.34 125.499 366.09C126.479 360.62 127.739 354.87 129.289 349.12C150.329 353.75 173.479 357.12 198.299 359.08C212.469 379 227.339 397.37 242.209 413.37C238.979 416.46 235.759 419.54 232.389 422.35C212.609 439.73 192.689 452.08 175.159 458.25ZM101.379 318.68C76.4086 310.12 55.7886 299.04 41.6186 286.98C28.8586 276.04 22.5386 265.38 22.5386 256.54C22.5386 237.88 50.3086 214.18 96.7386 197.91C102.349 195.95 108.239 194.12 114.409 192.3C120.859 213.2 129.279 234.94 139.379 256.97C129.139 279.27 120.579 301.44 114.129 322.62C109.649 321.34 105.439 320.08 101.379 318.68ZM126.059 150.21C116.379 100.97 122.829 63.9397 138.969 54.6797C156.079 44.7197 193.959 58.8897 233.939 94.3797C236.459 96.6197 238.989 99.0097 241.659 101.53C226.789 117.52 212.059 135.76 198.029 155.54C173.899 157.78 150.899 161.29 129.719 166.2C128.309 160.59 127.189 155.26 126.059 150.21ZM346.999 204.63C341.949 195.93 336.759 187.38 331.429 178.96C347.699 181.06 363.409 183.73 378.139 187.1C373.789 201.27 368.179 216 361.729 231.15C357.099 222.59 352.189 213.61 346.999 204.63ZM256.939 116.96C267.039 127.9 277.139 140.11 287.099 153.29C277.139 152.87 266.899 152.59 256.659 152.59C246.559 152.59 236.459 152.87 226.499 153.29C236.459 140.25 246.699 128.04 256.939 116.96ZM166.319 204.91C161.269 213.75 156.499 222.58 151.869 231.42C145.559 216.27 140.089 201.4 135.599 187.09C150.189 183.86 165.759 181.2 182.029 179.09C176.559 187.38 171.369 196.08 166.319 204.91ZM182.449 335.51C165.619 333.69 149.909 331.16 135.319 327.94C139.809 313.35 145.419 298.2 151.869 282.77C156.499 291.61 161.269 300.44 166.319 309.28C171.509 318.25 176.839 326.95 182.449 335.51ZM257.499 397.65C247.119 386.43 236.739 374.08 226.639 360.76C236.459 361.18 246.419 361.32 256.659 361.32C267.039 361.32 277.419 361.04 287.519 360.62C277.559 374.22 267.459 386.57 257.499 397.65ZM361.869 281.92C368.739 297.49 374.489 312.64 379.119 326.95C364.249 330.32 348.259 333.12 331.429 335.09C336.759 326.67 341.949 317.98 347.139 309C352.329 300.02 357.239 291.04 361.869 281.92ZM328.059 298.2C320.059 312.09 311.789 325.27 303.509 337.9C288.359 339.02 272.649 339.58 256.659 339.58C240.669 339.58 225.239 339.02 210.369 338.18C201.669 325.56 193.259 312.23 185.399 298.48C177.399 284.73 170.109 270.99 163.519 257.24C170.109 243.49 177.409 229.61 185.259 216C193.119 202.25 201.529 189.07 210.089 176.44C225.379 175.32 240.949 174.76 256.659 174.76C272.509 174.76 288.079 175.32 303.369 176.58C311.789 189.06 320.059 202.25 328.059 216C336.059 229.89 343.489 243.63 350.079 257.1C343.489 270.42 336.049 284.31 328.059 298.2ZM373.229 53.9797C390.339 63.7997 397.079 103.78 386.279 156.1C385.579 159.47 384.879 162.83 384.039 166.34C362.859 161.43 339.709 157.78 315.589 155.54C301.559 135.48 286.969 117.25 272.249 101.53C276.179 97.7397 280.109 94.0997 284.029 90.7297C321.749 57.6297 357.099 44.7197 373.229 53.9797ZM256.659 210.8C281.909 210.8 302.389 231.28 302.389 256.53C302.389 281.78 281.909 302.26 256.659 302.26C231.409 302.26 210.929 281.78 210.929 256.53C210.929 231.28 231.409 210.8 256.659 210.8Z" fill="#00D8FF"/>
</g>
<defs>
<clipPath id="clip0_207_4">
<rect width="512" height="512" fill="white" transform="translate(0.698486 0.959961)"/>
</clipPath>
</defs>
</svg>
