<svg width="257" height="155" viewBox="0 0 257 155" fill="none" xmlns="http://www.w3.org/2000/svg">
<g clip-path="url(#clip0_207_2)">
<path d="M128.751 0.539551C94.6182 0.539551 73.2842 17.6066 64.7512 51.7396C77.5512 34.6726 92.4842 28.2726 109.551 32.5396C119.288 34.9736 126.248 42.0386 133.952 49.8576C146.502 62.5966 161.026 77.3396 192.751 77.3396C226.884 77.3396 248.218 60.2726 256.751 26.1396C243.951 43.2066 229.018 49.6066 211.951 45.3396C202.214 42.9056 195.254 35.8406 187.55 28.0216C175 15.2826 160.476 0.539551 128.751 0.539551ZM64.7512 77.3396C30.6182 77.3396 9.28422 94.4066 0.751221 128.54C13.5512 111.473 28.4842 105.073 45.5512 109.34C55.2882 111.774 62.2482 118.839 69.9522 126.658C82.5022 139.397 97.0262 154.14 128.751 154.14C162.884 154.14 184.218 137.073 192.751 102.94C179.951 120.007 165.018 126.407 147.951 122.14C138.214 119.706 131.254 112.641 123.55 104.822C111 92.0825 96.4762 77.3396 64.7512 77.3396Z" fill="url(#paint0_linear_207_2)"/>
</g>
<defs>
<linearGradient id="paint0_linear_207_2" x1="-6.35961" y1="49.6918" x2="214.74" y2="177.172" gradientUnits="userSpaceOnUse">
<stop stop-color="#2298BD"/>
<stop offset="1" stop-color="#0ED7B5"/>
</linearGradient>
<clipPath id="clip0_207_2">
<rect width="256" height="153.6" fill="white" transform="translate(0.751221 0.539551)"/>
</clipPath>
</defs>
</svg>
